<svg width="22" height="25" viewBox="0 0 22 25" fill="none" xmlns="http://www.w3.org/2000/svg">
<path d="M8.7668 11.7205H2.92222C2.5119 11.7205 2.11839 11.5353 1.82826 11.2056C1.53812 10.8759 1.37512 10.4287 1.37512 9.96246V3.32088C1.37512 2.85462 1.53812 2.40745 1.82826 2.07775C2.11839 1.74804 2.5119 1.56282 2.92222 1.56282H8.7668C9.17712 1.56282 9.57063 1.74804 9.86076 2.07775C10.1509 2.40745 10.3139 2.85462 10.3139 3.32088V9.96246C10.3139 10.4287 10.1509 10.8759 9.86076 11.2056C9.57063 11.5353 9.17712 11.7205 8.7668 11.7205Z" fill="#2196F3"/>
<path d="M19.0789 11.7202H13.2343C12.824 11.7202 12.4305 11.535 12.1403 11.2053C11.8502 10.8756 11.6872 10.4284 11.6872 9.96217V3.32059C11.6872 2.85433 11.8502 2.40716 12.1403 2.07746C12.4305 1.74775 12.824 1.56253 13.2343 1.56253H19.0789C19.4892 1.56253 19.8827 1.74775 20.1728 2.07746C20.463 2.40716 20.626 2.85433 20.626 3.32059V9.96217C20.626 10.4284 20.463 10.8756 20.1728 11.2053C19.8827 11.535 19.4892 11.7202 19.0789 11.7202Z" fill="#2196F3"/>
<path d="M8.76644 23.4396H2.92185C2.51154 23.4396 2.11803 23.2544 1.82789 22.9247C1.53775 22.595 1.37476 22.1478 1.37476 21.6815V15.04C1.37476 14.5737 1.53775 14.1265 1.82789 13.7968C2.11803 13.4671 2.51154 13.2819 2.92185 13.2819H8.76644C9.17675 13.2819 9.57026 13.4671 9.8604 13.7968C10.1505 14.1265 10.3135 14.5737 10.3135 15.04V21.6815C10.3135 22.1478 10.1505 22.595 9.8604 22.9247C9.57026 23.2544 9.17675 23.4396 8.76644 23.4396Z" fill="#2196F3"/>
<path d="M19.0789 23.4396H13.2343C12.824 23.4396 12.4305 23.2544 12.1403 22.9247C11.8502 22.595 11.6872 22.1478 11.6872 21.6815V15.04C11.6872 14.5737 11.8502 14.1265 12.1403 13.7968C12.4305 13.4671 12.824 13.2819 13.2343 13.2819H19.0789C19.4892 13.2819 19.8827 13.4671 20.1728 13.7968C20.463 14.1265 20.626 14.5737 20.626 15.04V21.6815C20.626 22.1478 20.463 22.595 20.1728 22.9247C19.8827 23.2544 19.4892 23.4396 19.0789 23.4396Z" fill="#2196F3"/>
</svg>
