<svg width="357" height="75" viewBox="0 0 357 75" fill="none" xmlns="http://www.w3.org/2000/svg">
<g filter="url(#filter0_d_2387_1725)">
<path d="M7 17C7 11.4772 11.4772 7 17 7H338C343.523 7 348 11.4772 348 17V56C348 61.5229 343.523 66 338 66H17C11.4771 66 7 61.5229 7 56V17Z" fill="white"/>
</g>
<path d="M332.178 41.561L337.019 37.561L332.178 33.561" stroke="#454545"/>
<g filter="url(#filter1_d_2387_1725)">
<rect x="16.1611" y="19.8044" width="56.0185" height="35.5132" rx="8" fill="white"/>
</g>
<path d="M96.7905 37.4771C96.7905 36.3891 97.0359 35.4131 97.5265 34.5491C98.0172 33.6744 98.6839 32.9918 99.5265 32.5011C100.38 32.0104 101.324 31.7651 102.359 31.7651C103.575 31.7651 104.636 32.0584 105.543 32.6451C106.449 33.2318 107.111 34.0638 107.527 35.1411H105.783C105.473 34.4691 105.025 33.9518 104.439 33.5891C103.863 33.2264 103.169 33.0451 102.359 33.0451C101.58 33.0451 100.881 33.2264 100.263 33.5891C99.6439 33.9518 99.1585 34.4691 98.8065 35.1411C98.4545 35.8024 98.2785 36.5811 98.2785 37.4771C98.2785 38.3624 98.4545 39.1411 98.8065 39.8131C99.1585 40.4744 99.6439 40.9864 100.263 41.3491C100.881 41.7118 101.58 41.8931 102.359 41.8931C103.169 41.8931 103.863 41.7171 104.439 41.3651C105.025 41.0024 105.473 40.4851 105.783 39.8131H107.527C107.111 40.8798 106.449 41.7064 105.543 42.2931C104.636 42.8691 103.575 43.1571 102.359 43.1571C101.324 43.1571 100.38 42.9171 99.5265 42.4371C98.6839 41.9464 98.0172 41.2691 97.5265 40.4051C97.0359 39.5411 96.7905 38.5651 96.7905 37.4771ZM111.15 35.7171C111.406 35.2158 111.769 34.8264 112.238 34.5491C112.718 34.2718 113.299 34.1331 113.982 34.1331V35.6371H113.598C111.966 35.6371 111.15 36.5224 111.15 38.2931V43.0611H109.694V34.2931H111.15V35.7171ZM123.663 38.3411C123.663 38.6184 123.647 38.9118 123.615 39.2211H116.607C116.66 40.0851 116.953 40.7624 117.487 41.2531C118.031 41.7331 118.687 41.9731 119.455 41.9731C120.084 41.9731 120.607 41.8291 121.023 41.5411C121.449 41.2424 121.748 40.8478 121.919 40.3571H123.487C123.252 41.1998 122.783 41.8878 122.079 42.4211C121.375 42.9438 120.5 43.2051 119.455 43.2051C118.623 43.2051 117.876 43.0184 117.215 42.6451C116.564 42.2718 116.052 41.7438 115.679 41.0611C115.305 40.3678 115.119 39.5678 115.119 38.6611C115.119 37.7544 115.3 36.9598 115.663 36.2771C116.025 35.5944 116.532 35.0718 117.183 34.7091C117.844 34.3358 118.601 34.1491 119.455 34.1491C120.287 34.1491 121.023 34.3304 121.663 34.6931C122.303 35.0558 122.793 35.5571 123.135 36.1971C123.487 36.8264 123.663 37.5411 123.663 38.3411ZM122.159 38.0371C122.159 37.4824 122.036 37.0078 121.791 36.6131C121.545 36.2078 121.209 35.9038 120.783 35.7011C120.367 35.4878 119.903 35.3811 119.391 35.3811C118.655 35.3811 118.025 35.6158 117.503 36.0851C116.991 36.5544 116.697 37.2051 116.623 38.0371H122.159ZM125.041 38.6451C125.041 37.7491 125.222 36.9651 125.585 36.2931C125.947 35.6104 126.443 35.0824 127.073 34.7091C127.713 34.3358 128.422 34.1491 129.201 34.1491C129.969 34.1491 130.635 34.3144 131.201 34.6451C131.766 34.9758 132.187 35.3918 132.465 35.8931V34.2931H133.937V43.0611H132.465V41.4291C132.177 41.9411 131.745 42.3678 131.169 42.7091C130.603 43.0398 129.942 43.2051 129.185 43.2051C128.406 43.2051 127.702 43.0131 127.073 42.6291C126.443 42.2451 125.947 41.7064 125.585 41.0131C125.222 40.3198 125.041 39.5304 125.041 38.6451ZM132.465 38.6611C132.465 37.9998 132.331 37.4238 132.065 36.9331C131.798 36.4424 131.435 36.0691 130.977 35.8131C130.529 35.5464 130.033 35.4131 129.489 35.4131C128.945 35.4131 128.449 35.5411 128.001 35.7971C127.553 36.0531 127.195 36.4264 126.929 36.9171C126.662 37.4078 126.529 37.9838 126.529 38.6451C126.529 39.3171 126.662 39.9038 126.929 40.4051C127.195 40.8958 127.553 41.2744 128.001 41.5411C128.449 41.7971 128.945 41.9251 129.489 41.9251C130.033 41.9251 130.529 41.7971 130.977 41.5411C131.435 41.2744 131.798 40.8958 132.065 40.4051C132.331 39.9038 132.465 39.3224 132.465 38.6611ZM138.173 35.4931V40.6611C138.173 41.0878 138.264 41.3918 138.445 41.5731C138.626 41.7438 138.941 41.8291 139.389 41.8291H140.461V43.0611H139.149C138.338 43.0611 137.73 42.8744 137.325 42.5011C136.92 42.1278 136.717 41.5144 136.717 40.6611V35.4931H135.581V34.2931H136.717V32.0851H138.173V34.2931H140.461V35.4931H138.173ZM150.225 38.3411C150.225 38.6184 150.209 38.9118 150.177 39.2211H143.169C143.222 40.0851 143.516 40.7624 144.049 41.2531C144.593 41.7331 145.249 41.9731 146.017 41.9731C146.646 41.9731 147.169 41.8291 147.585 41.5411C148.012 41.2424 148.31 40.8478 148.481 40.3571H150.049C149.814 41.1998 149.345 41.8878 148.641 42.4211C147.937 42.9438 147.062 43.2051 146.017 43.2051C145.185 43.2051 144.438 43.0184 143.777 42.6451C143.126 42.2718 142.614 41.7438 142.241 41.0611C141.868 40.3678 141.681 39.5678 141.681 38.6611C141.681 37.7544 141.862 36.9598 142.225 36.2771C142.588 35.5944 143.094 35.0718 143.745 34.7091C144.406 34.3358 145.164 34.1491 146.017 34.1491C146.849 34.1491 147.585 34.3304 148.225 34.6931C148.865 35.0558 149.356 35.5571 149.697 36.1971C150.049 36.8264 150.225 37.5411 150.225 38.3411ZM148.721 38.0371C148.721 37.4824 148.598 37.0078 148.353 36.6131C148.108 36.2078 147.772 35.9038 147.345 35.7011C146.929 35.4878 146.465 35.3811 145.953 35.3811C145.217 35.3811 144.588 35.6158 144.065 36.0851C143.553 36.5544 143.26 37.2051 143.185 38.0371H148.721ZM155.869 37.4771C155.869 36.3891 156.114 35.4131 156.605 34.5491C157.095 33.6744 157.762 32.9918 158.605 32.5011C159.458 32.0104 160.402 31.7651 161.437 31.7651C162.653 31.7651 163.714 32.0584 164.621 32.6451C165.527 33.2318 166.189 34.0638 166.605 35.1411H164.861C164.551 34.4691 164.103 33.9518 163.517 33.5891C162.941 33.2264 162.247 33.0451 161.437 33.0451C160.658 33.0451 159.959 33.2264 159.341 33.5891C158.722 33.9518 158.237 34.4691 157.885 35.1411C157.533 35.8024 157.357 36.5811 157.357 37.4771C157.357 38.3624 157.533 39.1411 157.885 39.8131C158.237 40.4744 158.722 40.9864 159.341 41.3491C159.959 41.7118 160.658 41.8931 161.437 41.8931C162.247 41.8931 162.941 41.7171 163.517 41.3651C164.103 41.0024 164.551 40.4851 164.861 39.8131H166.605C166.189 40.8798 165.527 41.7064 164.621 42.2931C163.714 42.8691 162.653 43.1571 161.437 43.1571C160.402 43.1571 159.458 42.9171 158.605 42.4371C157.762 41.9464 157.095 41.2691 156.605 40.4051C156.114 39.5411 155.869 38.5651 155.869 37.4771ZM168.228 38.6451C168.228 37.7491 168.409 36.9651 168.772 36.2931C169.135 35.6104 169.631 35.0824 170.26 34.7091C170.9 34.3358 171.609 34.1491 172.388 34.1491C173.156 34.1491 173.823 34.3144 174.388 34.6451C174.953 34.9758 175.375 35.3918 175.652 35.8931V34.2931H177.124V43.0611H175.652V41.4291C175.364 41.9411 174.932 42.3678 174.356 42.7091C173.791 43.0398 173.129 43.2051 172.372 43.2051C171.593 43.2051 170.889 43.0131 170.26 42.6291C169.631 42.2451 169.135 41.7064 168.772 41.0131C168.409 40.3198 168.228 39.5304 168.228 38.6451ZM175.652 38.6611C175.652 37.9998 175.519 37.4238 175.252 36.9331C174.985 36.4424 174.623 36.0691 174.164 35.8131C173.716 35.5464 173.22 35.4131 172.676 35.4131C172.132 35.4131 171.636 35.5411 171.188 35.7971C170.74 36.0531 170.383 36.4264 170.116 36.9171C169.849 37.4078 169.716 37.9838 169.716 38.6451C169.716 39.3171 169.849 39.9038 170.116 40.4051C170.383 40.8958 170.74 41.2744 171.188 41.5411C171.636 41.7971 172.132 41.9251 172.676 41.9251C173.22 41.9251 173.716 41.7971 174.164 41.5411C174.623 41.2744 174.985 40.8958 175.252 40.4051C175.519 39.9038 175.652 39.3224 175.652 38.6611ZM181.361 35.4931V40.6611C181.361 41.0878 181.451 41.3918 181.633 41.5731C181.814 41.7438 182.129 41.8291 182.577 41.8291H183.649V43.0611H182.337C181.526 43.0611 180.918 42.8744 180.513 42.5011C180.107 42.1278 179.905 41.5144 179.905 40.6611V35.4931H178.769V34.2931H179.905V32.0851H181.361V34.2931H183.649V35.4931H181.361ZM184.869 38.6451C184.869 37.7491 185.05 36.9651 185.413 36.2931C185.775 35.6104 186.271 35.0824 186.901 34.7091C187.541 34.3358 188.25 34.1491 189.029 34.1491C189.797 34.1491 190.463 34.3144 191.029 34.6451C191.594 34.9758 192.015 35.3918 192.293 35.8931V34.2931H193.765V43.0611H192.293V41.4291C192.005 41.9411 191.573 42.3678 190.997 42.7091C190.431 43.0398 189.77 43.2051 189.013 43.2051C188.234 43.2051 187.53 43.0131 186.901 42.6291C186.271 42.2451 185.775 41.7064 185.413 41.0131C185.05 40.3198 184.869 39.5304 184.869 38.6451ZM192.293 38.6611C192.293 37.9998 192.159 37.4238 191.893 36.9331C191.626 36.4424 191.263 36.0691 190.805 35.8131C190.357 35.5464 189.861 35.4131 189.317 35.4131C188.773 35.4131 188.277 35.5411 187.829 35.7971C187.381 36.0531 187.023 36.4264 186.757 36.9171C186.49 37.4078 186.357 37.9838 186.357 38.6451C186.357 39.3171 186.49 39.9038 186.757 40.4051C187.023 40.8958 187.381 41.2744 187.829 41.5411C188.277 41.7971 188.773 41.9251 189.317 41.9251C189.861 41.9251 190.357 41.7971 190.805 41.5411C191.263 41.2744 191.626 40.8958 191.893 40.4051C192.159 39.9038 192.293 39.3224 192.293 38.6611ZM197.681 31.2211V43.0611H196.225V31.2211H197.681ZM203.987 43.2051C203.165 43.2051 202.419 43.0184 201.747 42.6451C201.085 42.2718 200.563 41.7438 200.179 41.0611C199.805 40.3678 199.619 39.5678 199.619 38.6611C199.619 37.7651 199.811 36.9758 200.195 36.2931C200.589 35.5998 201.123 35.0718 201.795 34.7091C202.467 34.3358 203.219 34.1491 204.051 34.1491C204.883 34.1491 205.635 34.3358 206.307 34.7091C206.979 35.0718 207.507 35.5944 207.891 36.2771C208.285 36.9598 208.483 37.7544 208.483 38.6611C208.483 39.5678 208.28 40.3678 207.875 41.0611C207.48 41.7438 206.941 42.2718 206.259 42.6451C205.576 43.0184 204.819 43.2051 203.987 43.2051ZM203.987 41.9251C204.509 41.9251 205 41.8024 205.459 41.5571C205.917 41.3118 206.285 40.9438 206.563 40.4531C206.851 39.9624 206.995 39.3651 206.995 38.6611C206.995 37.9571 206.856 37.3598 206.579 36.8691C206.301 36.3784 205.939 36.0158 205.491 35.7811C205.043 35.5358 204.557 35.4131 204.035 35.4131C203.501 35.4131 203.011 35.5358 202.563 35.7811C202.125 36.0158 201.773 36.3784 201.507 36.8691C201.24 37.3598 201.107 37.9571 201.107 38.6611C201.107 39.3758 201.235 39.9784 201.491 40.4691C201.757 40.9598 202.109 41.3278 202.547 41.5731C202.984 41.8078 203.464 41.9251 203.987 41.9251ZM214.013 34.1491C214.77 34.1491 215.432 34.3144 215.997 34.6451C216.573 34.9758 217 35.3918 217.277 35.8931V34.2931H218.749V43.2531C218.749 44.0531 218.578 44.7624 218.237 45.3811C217.896 46.0104 217.405 46.5011 216.765 46.8531C216.136 47.2051 215.4 47.3811 214.557 47.3811C213.405 47.3811 212.445 47.1091 211.677 46.5651C210.909 46.0211 210.456 45.2798 210.317 44.3411H211.757C211.917 44.8744 212.248 45.3011 212.749 45.6211C213.25 45.9518 213.853 46.1171 214.557 46.1171C215.357 46.1171 216.008 45.8664 216.509 45.3651C217.021 44.8638 217.277 44.1598 217.277 43.2531V41.4131C216.989 41.9251 216.562 42.3518 215.997 42.6931C215.432 43.0344 214.77 43.2051 214.013 43.2051C213.234 43.2051 212.525 43.0131 211.885 42.6291C211.256 42.2451 210.76 41.7064 210.397 41.0131C210.034 40.3198 209.853 39.5304 209.853 38.6451C209.853 37.7491 210.034 36.9651 210.397 36.2931C210.76 35.6104 211.256 35.0824 211.885 34.7091C212.525 34.3358 213.234 34.1491 214.013 34.1491ZM217.277 38.6611C217.277 37.9998 217.144 37.4238 216.877 36.9331C216.61 36.4424 216.248 36.0691 215.789 35.8131C215.341 35.5464 214.845 35.4131 214.301 35.4131C213.757 35.4131 213.261 35.5411 212.813 35.7971C212.365 36.0531 212.008 36.4264 211.741 36.9171C211.474 37.4078 211.341 37.9838 211.341 38.6451C211.341 39.3171 211.474 39.9038 211.741 40.4051C212.008 40.8958 212.365 41.2744 212.813 41.5411C213.261 41.7971 213.757 41.9251 214.301 41.9251C214.845 41.9251 215.341 41.7971 215.789 41.5411C216.248 41.2744 216.61 40.8958 216.877 40.4051C217.144 39.9038 217.277 39.3224 217.277 38.6611Z" fill="#2196F3"/>
<path d="M48.8811 37.8291H45.4731V41.2851H44.1131V37.8291H40.7211V36.5971H44.1131V33.1251H45.4731V36.5971H48.8811V37.8291Z" fill="#2196F3"/>
<defs>
<filter id="filter0_d_2387_1725" x="0" y="0" width="357" height="75" filterUnits="userSpaceOnUse" color-interpolation-filters="sRGB">
<feFlood flood-opacity="0" result="BackgroundImageFix"/>
<feColorMatrix in="SourceAlpha" type="matrix" values="0 0 0 0 0 0 0 0 0 0 0 0 0 0 0 0 0 0 127 0" result="hardAlpha"/>
<feOffset dx="1" dy="1"/>
<feGaussianBlur stdDeviation="4"/>
<feComposite in2="hardAlpha" operator="out"/>
<feColorMatrix type="matrix" values="0 0 0 0 0 0 0 0 0 0 0 0 0 0 0 0 0 0 0.25 0"/>
<feBlend mode="normal" in2="BackgroundImageFix" result="effect1_dropShadow_2387_1725"/>
<feBlend mode="normal" in="SourceGraphic" in2="effect1_dropShadow_2387_1725" result="shape"/>
</filter>
<filter id="filter1_d_2387_1725" x="9.16113" y="12.8044" width="72.0186" height="51.5132" filterUnits="userSpaceOnUse" color-interpolation-filters="sRGB">
<feFlood flood-opacity="0" result="BackgroundImageFix"/>
<feColorMatrix in="SourceAlpha" type="matrix" values="0 0 0 0 0 0 0 0 0 0 0 0 0 0 0 0 0 0 127 0" result="hardAlpha"/>
<feOffset dx="1" dy="1"/>
<feGaussianBlur stdDeviation="4"/>
<feComposite in2="hardAlpha" operator="out"/>
<feColorMatrix type="matrix" values="0 0 0 0 0 0 0 0 0 0 0 0 0 0 0 0 0 0 0.25 0"/>
<feBlend mode="normal" in2="BackgroundImageFix" result="effect1_dropShadow_2387_1725"/>
<feBlend mode="normal" in="SourceGraphic" in2="effect1_dropShadow_2387_1725" result="shape"/>
</filter>
</defs>
</svg>
